<svg width="46" height="46" viewBox="0 0 46 46" fill="none" xmlns="http://www.w3.org/2000/svg">
    <rect width="46" height="46" rx="5" fill="#212121" fill-opacity="0.08"/>
    <rect x="13" y="13" width="20" height="20" rx="6" fill="black" fill-opacity="0.6"/>
    <path d="M22.9988 17.8564C20.1592 17.8564 17.8555 20.1602 17.8555 22.9998C17.8555 25.8394 20.1592 28.1431 22.9988 28.1431C25.8384 28.1431 28.1422 25.8394 28.1422 22.9998C28.1422 20.1602 25.8384 17.8564 22.9988 17.8564ZM22.9988 26.3361C21.1566 26.3361 19.6625 24.842 19.6625 22.9998C19.6625 21.1576 21.1566 19.6635 22.9988 19.6635C24.841 19.6635 26.3351 21.1576 26.3351 22.9998C26.3351 24.842 24.841 26.3361 22.9988 26.3361Z" fill="#EDEDED"/>
    <path d="M29.5461 17.6529C29.5461 18.3178 29.0063 18.8537 28.3453 18.8537C27.6804 18.8537 27.1445 18.3139 27.1445 17.6529C27.1445 16.988 27.6843 16.4521 28.3453 16.4521C29.0063 16.4521 29.5461 16.9919 29.5461 17.6529Z" fill="#EDEDED"/>
</svg>
